<svg width="38" height="38" viewBox="0 0 38 38" fill="none" xmlns="http://www.w3.org/2000/svg">
<circle cx="19" cy="19" r="18.5" stroke="#007580"/>
<g clip-path="url(#clip0_1_566)">
<path d="M27 19C27 14.5817 23.4183 11 19 11C14.5817 11 11 14.5817 11 19C11 22.993 13.9253 26.3027 17.75 26.9027V21.3127H15.7187V19H17.75V17.2373C17.75 15.2327 18.9443 14.125 20.7717 14.125C21.6467 14.125 22.5623 14.2813 22.5623 14.2813V16.25H21.5537C20.56 16.25 20.25 16.8667 20.25 17.5V19H22.4687L22.114 21.3127H20.25V26.9027C24.0747 26.3027 27 22.9927 27 19Z" fill="#007580"/>
</g>
<defs>
<clipPath id="clip0_1_566">
<rect width="16" height="16" fill="white" transform="translate(11 11)"/>
</clipPath>
</defs>
</svg>
