<svg width="38" height="38" viewBox="0 0 38 38" fill="none" xmlns="http://www.w3.org/2000/svg">
<path d="M26.8407 15.7998C26.8407 15.7998 26.6843 14.6965 26.203 14.2125C25.5937 13.5748 24.9123 13.5718 24.6 13.5342C22.3627 13.3718 19.0033 13.3718 19.0033 13.3718H18.9967C18.9967 13.3718 15.6377 13.3718 13.4 13.5342C13.0873 13.5718 12.4063 13.5748 11.7967 14.2125C11.316 14.6965 11.1627 15.7998 11.1627 15.7998C11.1627 15.7998 11 17.0965 11 18.3905V19.6028C11 20.8968 11.1593 22.1935 11.1593 22.1935C11.1593 22.1935 11.3157 23.2968 11.7937 23.7812C12.403 24.4185 13.203 24.3968 13.5593 24.4655C14.8407 24.5875 19 24.6248 19 24.6248C19 24.6248 22.3623 24.6185 24.6 24.4592C24.9127 24.4218 25.5937 24.4185 26.2033 23.7812C26.6843 23.2968 26.8407 22.1935 26.8407 22.1935C26.8407 22.1935 27 20.9002 27 19.6032V18.3908C27 17.0972 26.8407 15.8002 26.8407 15.8002V15.7998ZM17.3467 21.0748V16.5782L21.6683 18.8342L17.3467 21.0748Z" fill="#636270"/>
</svg>
